<svg width="24" height="25" viewBox="0 0 24 25" fill="none" xmlns="http://www.w3.org/2000/svg">
<path d="M9.15826 6.60286L8.7556 5.69688C8.49232 5.10451 8.36068 4.8083 8.16381 4.58163C7.91708 4.29757 7.59547 4.08857 7.23568 3.97848C6.94859 3.89063 6.62446 3.89062 5.97621 3.89062C5.02791 3.89062 4.55376 3.89063 4.15573 4.07292C3.68687 4.28765 3.26344 4.7539 3.09473 5.24122C2.95151 5.65491 2.99254 6.08006 3.07458 6.93033C3.94791 15.9808 8.90982 20.9427 17.9603 21.816C18.8106 21.8981 19.2358 21.9391 19.6494 21.7959C20.1368 21.6272 20.603 21.2037 20.8178 20.7349C21 20.3368 21 19.8627 21 18.9144C21 18.2661 21 17.942 20.9122 17.6549C20.8021 17.2951 20.5931 16.9735 20.309 16.7268C20.0824 16.5299 19.7862 16.3983 19.1938 16.135L18.2878 15.7323C17.6463 15.4472 17.3255 15.3047 16.9996 15.2737C16.6876 15.244 16.3731 15.2878 16.0811 15.4015C15.776 15.5203 15.5064 15.745 14.967 16.1944C14.4302 16.6418 14.1618 16.8655 13.8338 16.9853C13.543 17.0915 13.1586 17.1309 12.8524 17.0857C12.5069 17.0348 12.2424 16.8935 11.7133 16.6107C10.0673 15.7311 9.15953 14.8234 8.27987 13.1773C7.99714 12.6483 7.85578 12.3837 7.80487 12.0383C7.75974 11.732 7.79908 11.3476 7.9053 11.0569C8.02512 10.7289 8.24881 10.4605 8.69619 9.92362C9.14562 9.38431 9.37034 9.11465 9.48915 8.80954C9.60285 8.51757 9.64662 8.20303 9.61695 7.89111C9.58594 7.56515 9.44338 7.24439 9.15826 6.60286Z" stroke="#0A0A0A" stroke-width="2" stroke-linecap="round"/>
</svg>
