<svg width="24" height="25" viewBox="0 0 24 25" fill="none" xmlns="http://www.w3.org/2000/svg">
<path d="M20.5 10.5664V19.5664C20.5 20.0323 20.5 20.2653 20.4239 20.4491C20.3224 20.6941 20.1277 20.8888 19.8827 20.9903C19.6989 21.0664 19.4659 21.0664 19 21.0664C18.5341 21.0664 18.3011 21.0664 18.1173 20.9903C17.8723 20.8888 17.6776 20.6941 17.5761 20.4491C17.5 20.2653 17.5 20.0323 17.5 19.5664V10.5664C17.5 10.1005 17.5 9.8675 17.5761 9.68373C17.6776 9.4387 17.8723 9.24402 18.1173 9.14253C18.3011 9.06641 18.5341 9.06641 19 9.06641C19.4659 9.06641 19.6989 9.06641 19.8827 9.14253C20.1277 9.24402 20.3224 9.4387 20.4239 9.68373C20.5 9.8675 20.5 10.1005 20.5 10.5664Z" stroke="url(#paint0_linear_7494_31247)" stroke-width="1.5" stroke-linejoin="round"/>
<path d="M16.5 3.06641H19.5V6.06641" stroke="url(#paint1_linear_7494_31247)" stroke-width="1.5" stroke-linecap="round" stroke-linejoin="round"/>
<path d="M19 3.56641C19 3.56641 15 8.56641 4.5 12.0664" stroke="url(#paint2_linear_7494_31247)" stroke-width="1.5" stroke-linecap="round" stroke-linejoin="round"/>
<path d="M13.5 14.0664V19.5664C13.5 20.0323 13.5 20.2653 13.4239 20.4491C13.3224 20.6941 13.1277 20.8888 12.8827 20.9903C12.6989 21.0664 12.4659 21.0664 12 21.0664C11.5341 21.0664 11.3011 21.0664 11.1173 20.9903C10.8723 20.8888 10.6776 20.6941 10.5761 20.4491C10.5 20.2653 10.5 20.0323 10.5 19.5664V14.0664C10.5 13.6005 10.5 13.3675 10.5761 13.1837C10.6776 12.9387 10.8723 12.744 11.1173 12.6425C11.3011 12.5664 11.5341 12.5664 12 12.5664C12.4659 12.5664 12.6989 12.5664 12.8827 12.6425C13.1277 12.744 13.3224 12.9387 13.4239 13.1837C13.5 13.3675 13.5 13.6005 13.5 14.0664Z" stroke="url(#paint3_linear_7494_31247)" stroke-width="1.5" stroke-linejoin="round"/>
<path d="M6.5 16.5664V19.5664C6.5 20.0323 6.5 20.2653 6.42388 20.4491C6.32239 20.6941 6.12771 20.8888 5.88268 20.9903C5.69891 21.0664 5.46594 21.0664 5 21.0664C4.53406 21.0664 4.30109 21.0664 4.11732 20.9903C3.87229 20.8888 3.67761 20.6941 3.57612 20.4491C3.5 20.2653 3.5 20.0323 3.5 19.5664V16.5664C3.5 16.1005 3.5 15.8675 3.57612 15.6837C3.67761 15.4387 3.87229 15.244 4.11732 15.1425C4.30109 15.0664 4.53406 15.0664 5 15.0664C5.46594 15.0664 5.69891 15.0664 5.88268 15.1425C6.12771 15.244 6.32239 15.4387 6.42388 15.6837C6.5 15.8675 6.5 16.1005 6.5 16.5664Z" stroke="url(#paint4_linear_7494_31247)" stroke-width="1.5" stroke-linejoin="round"/>
<defs>
<linearGradient id="paint0_linear_7494_31247" x1="19.0059" y1="9.82664" x2="18.9129" y2="21.0657" gradientUnits="userSpaceOnUse">
<stop stop-color="#0F6D5C"/>
<stop offset="1" stop-color="#20A98A"/>
</linearGradient>
<linearGradient id="paint1_linear_7494_31247" x1="18.0059" y1="3.25646" x2="18.0001" y2="6.06641" gradientUnits="userSpaceOnUse">
<stop stop-color="#0F6D5C"/>
<stop offset="1" stop-color="#20A98A"/>
</linearGradient>
<linearGradient id="paint2_linear_7494_31247" x1="11.7784" y1="4.10491" x2="11.7688" y2="12.0664" gradientUnits="userSpaceOnUse">
<stop stop-color="#0F6D5C"/>
<stop offset="1" stop-color="#20A98A"/>
</linearGradient>
<linearGradient id="paint3_linear_7494_31247" x1="12.0059" y1="13.1049" x2="11.9592" y2="21.0662" gradientUnits="userSpaceOnUse">
<stop stop-color="#0F6D5C"/>
<stop offset="1" stop-color="#20A98A"/>
</linearGradient>
<linearGradient id="paint4_linear_7494_31247" x1="5.00588" y1="15.4465" x2="4.98263" y2="21.0663" gradientUnits="userSpaceOnUse">
<stop stop-color="#0F6D5C"/>
<stop offset="1" stop-color="#20A98A"/>
</linearGradient>
</defs>
</svg>
