<svg width="32" height="32" viewBox="0 0 32 32" fill="none" xmlns="http://www.w3.org/2000/svg">
<path d="M27.334 14V26C27.334 26.6212 27.334 26.9319 27.2325 27.1769C27.0972 27.5036 26.8376 27.7632 26.5109 27.8985C26.2659 28 25.9552 28 25.334 28C24.7128 28 24.4021 28 24.1571 27.8985C23.8304 27.7632 23.5708 27.5036 23.4355 27.1769C23.334 26.9319 23.334 26.6212 23.334 26V14C23.334 13.3788 23.334 13.0681 23.4355 12.8231C23.5708 12.4964 23.8304 12.2368 24.1571 12.1015C24.4021 12 24.7128 12 25.334 12C25.9552 12 26.2659 12 26.5109 12.1015C26.8376 12.2368 27.0972 12.4964 27.2325 12.8231C27.334 13.0681 27.334 13.3788 27.334 14Z" stroke="black" stroke-width="2" stroke-linejoin="round"/>
<path d="M22 4H26V8" stroke="black" stroke-width="2" stroke-linecap="round" stroke-linejoin="round"/>
<path d="M25.3333 4.66602C25.3333 4.66602 20 11.3327 6 15.9993" stroke="black" stroke-width="2" stroke-linecap="round" stroke-linejoin="round"/>
<path d="M18 18.666V25.9993C18 26.6205 18 26.9312 17.8985 27.1763C17.7632 27.5029 17.5036 27.7625 17.1769 27.8979C16.9319 27.9993 16.6212 27.9993 16 27.9993C15.3788 27.9993 15.0681 27.9993 14.8231 27.8979C14.4964 27.7625 14.2368 27.5029 14.1015 27.1763C14 26.9312 14 26.6205 14 25.9993V18.666C14 18.0448 14 17.7341 14.1015 17.4891C14.2368 17.1624 14.4964 16.9028 14.8231 16.7675C15.0681 16.666 15.3788 16.666 16 16.666C16.6212 16.666 16.9319 16.666 17.1769 16.7675C17.5036 16.9028 17.7632 17.1624 17.8985 17.4891C18 17.7341 18 18.0448 18 18.666Z" stroke="black" stroke-width="2" stroke-linejoin="round"/>
<path d="M8.66602 22V26C8.66602 26.6212 8.66602 26.9319 8.56452 27.1769C8.4292 27.5036 8.16963 27.7632 7.84292 27.8985C7.5979 28 7.28727 28 6.66602 28C6.04476 28 5.73414 28 5.48911 27.8985C5.1624 27.7632 4.90283 27.5036 4.76751 27.1769C4.66602 26.9319 4.66602 26.6212 4.66602 26V22C4.66602 21.3788 4.66602 21.0681 4.76751 20.8231C4.90283 20.4964 5.1624 20.2368 5.48911 20.1015C5.73414 20 6.04476 20 6.66602 20C7.28727 20 7.5979 20 7.84292 20.1015C8.16963 20.2368 8.4292 20.4964 8.56452 20.8231C8.66602 21.0681 8.66602 21.3788 8.66602 22Z" stroke="black" stroke-width="2" stroke-linejoin="round"/>
</svg>
