<svg width="24" height="25" viewBox="0 0 24 25" fill="none" xmlns="http://www.w3.org/2000/svg">
<path d="M17 11.1092C17 10.7635 17 10.5907 17.052 10.4367C17.2032 9.98913 17.6018 9.81545 18.0011 9.63357C18.45 9.42911 18.6744 9.32688 18.8968 9.30889C19.1493 9.28847 19.4022 9.34287 19.618 9.46398C19.9041 9.62453 20.1036 9.92962 20.3079 10.1777C21.2513 11.3235 21.7229 11.8965 21.8955 12.5283C22.0348 13.0381 22.0348 13.5713 21.8955 14.0811C21.6438 15.0026 20.8485 15.7751 20.2598 16.4901C19.9587 16.8558 19.8081 17.0387 19.618 17.1454C19.4022 17.2665 19.1493 17.3209 18.8968 17.3005C18.6744 17.2825 18.45 17.1803 18.0011 16.9758C17.6018 16.7939 17.2032 16.6203 17.052 16.1727C17 16.0187 17 15.8459 17 15.5002V11.1092Z" stroke="#1E3768" stroke-width="1.5"/>
<path d="M7 11.1093C7 10.6741 6.98778 10.2829 6.63591 9.97689C6.50793 9.86559 6.33825 9.7883 5.99891 9.63374C5.55001 9.42927 5.32556 9.32704 5.10316 9.30905C4.43591 9.25509 4.07692 9.7105 3.69213 10.1779C2.74875 11.3237 2.27706 11.8966 2.10446 12.5284C1.96518 13.0383 1.96518 13.5715 2.10446 14.0813C2.3562 15.0028 3.15152 15.7752 3.74021 16.4903C4.11129 16.941 4.46577 17.3522 5.10316 17.3007C5.32556 17.2827 5.55001 17.1804 5.99891 16.976C6.33825 16.8214 6.50793 16.7441 6.63591 16.6328C6.98778 16.3268 7 15.9357 7 15.5004V11.1093Z" stroke="#1E3768" stroke-width="1.5"/>
<path d="M5 9.30469C5 5.99098 8.13401 3.30469 12 3.30469C15.866 3.30469 19 5.99098 19 9.30469" stroke="#1E3768" stroke-width="1.5" stroke-linecap="square" stroke-linejoin="round"/>
<path d="M19 17.3047V18.1047C19 19.872 17.2091 21.3047 15 21.3047H13" stroke="#1E3768" stroke-width="1.5" stroke-linecap="round" stroke-linejoin="round"/>
</svg>
