<svg width="32" height="33" viewBox="0 0 32 33" fill="none" xmlns="http://www.w3.org/2000/svg">
<path d="M16.0007 11.6367C21.8917 11.6367 26.6673 9.84586 26.6673 7.63672C26.6673 5.42758 21.8917 3.63672 16.0007 3.63672C10.1096 3.63672 5.33398 5.42758 5.33398 7.63672C5.33398 9.84586 10.1096 11.6367 16.0007 11.6367Z" stroke="black" stroke-width="2"/>
<path d="M9.33398 15.4258C10.1361 15.667 11.0331 15.8655 12.0007 16.0124" stroke="black" stroke-width="2" stroke-linecap="round"/>
<path d="M26.6673 16.9707C26.6673 19.1799 21.8917 20.9707 16.0007 20.9707C10.1096 20.9707 5.33398 19.1799 5.33398 16.9707" stroke="black" stroke-width="2"/>
<path d="M9.33398 24.7598C10.1361 25.001 11.0331 25.1995 12.0007 25.3464" stroke="black" stroke-width="2" stroke-linecap="round"/>
<path d="M26.6673 7.63672V26.3034C26.6673 28.5126 21.8917 30.3034 16.0007 30.3034C10.1096 30.3034 5.33398 28.5126 5.33398 26.3034V7.63672" stroke="black" stroke-width="2"/>
</svg>
