<svg width="32" height="33" viewBox="0 0 32 33" fill="none" xmlns="http://www.w3.org/2000/svg">
<path d="M19.3327 25.5729H16.666C12.8948 25.5729 11.0092 25.5729 9.83759 24.4013C8.66602 23.2297 8.66602 21.3441 8.66602 17.5729V10.9062C8.66602 7.13501 8.66602 5.2494 9.83759 4.07782C11.0092 2.90625 12.8948 2.90625 16.666 2.90625H18.4569C19.5469 2.90625 20.0919 2.90625 20.582 3.10924C21.072 3.31222 21.4573 3.6976 22.2281 4.46834L25.7705 8.01082C26.5413 8.78156 26.9267 9.16694 27.1297 9.657C27.3327 10.147 27.3327 10.692 27.3327 11.782V17.5729C27.3327 21.3441 27.3327 23.2297 26.1611 24.4013C24.9896 25.5729 23.1039 25.5729 19.3327 25.5729Z" stroke="black" stroke-width="2" stroke-linecap="round" stroke-linejoin="round"/>
<path d="M20 3.57422V4.90755C20 7.42171 20 8.67879 20.7811 9.45983C21.5621 10.2409 22.8192 10.2409 25.3333 10.2409H26.6667" stroke="black" stroke-width="2" stroke-linecap="round" stroke-linejoin="round"/>
<path d="M8.66602 6.90625C6.45688 6.90625 4.66602 8.69712 4.66602 10.9062V21.5729C4.66602 25.3442 4.66602 27.2298 5.83759 28.4013C7.00916 29.5729 8.89478 29.5729 12.666 29.5729H19.3332C21.5423 29.5729 23.3332 27.782 23.3332 25.5729" stroke="black" stroke-width="2" stroke-linecap="round" stroke-linejoin="round"/>
<path d="M13.334 14.9062H18.6673M13.334 20.2396H22.6673" stroke="black" stroke-width="2" stroke-linecap="round" stroke-linejoin="round"/>
</svg>
