<svg width="24" height="25" viewBox="0 0 24 25" fill="none" xmlns="http://www.w3.org/2000/svg">
<path d="M8.85746 12.5725C6.36901 10.712 4.59564 8.66556 3.62734 7.51508C3.3276 7.15894 3.22938 6.89831 3.17033 6.43921C2.96811 4.86721 2.86701 4.08121 3.32795 3.57381C3.7889 3.06641 4.60404 3.06641 6.23433 3.06641H17.7657C19.396 3.06641 20.2111 3.06641 20.672 3.57381C21.133 4.08121 21.0319 4.86721 20.8297 6.43922C20.7706 6.89832 20.6724 7.15895 20.3726 7.51508C19.403 8.66703 17.6261 10.7171 15.1326 12.5799C14.907 12.7485 14.7583 13.0231 14.7307 13.3278C14.4837 16.0584 14.2559 17.554 14.1141 18.3106C13.8853 19.5321 12.1532 20.267 11.226 20.9227C10.6741 21.313 10.0043 20.8484 9.93278 20.2442C9.79643 19.0925 9.53961 16.7528 9.25927 13.3278C9.23409 13.0203 9.08486 12.7425 8.85746 12.5725Z" stroke="url(#paint0_linear_7494_31275)" stroke-width="1.5" stroke-linecap="round" stroke-linejoin="round"/>
<defs>
<linearGradient id="paint0_linear_7494_31275" x1="12.0353" y1="4.20676" x2="12.0004" y2="21.0664" gradientUnits="userSpaceOnUse">
<stop stop-color="#0F6D5C"/>
<stop offset="1" stop-color="#20A98A"/>
</linearGradient>
</defs>
</svg>
