<svg width="16" height="17" viewBox="0 0 16 17" fill="none" xmlns="http://www.w3.org/2000/svg">
<path d="M9.70602 8.30599C9.70602 8.64354 9.60592 8.9735 9.41839 9.25416C9.23086 9.53482 8.96431 9.75357 8.65246 9.88274C8.34061 10.0119 7.99746 10.0457 7.6664 9.97986C7.33533 9.91401 7.03124 9.75147 6.79255 9.51278C6.55387 9.2741 6.39133 8.97 6.32548 8.63894C6.25962 8.30788 6.29342 7.96473 6.42259 7.65288C6.55177 7.34102 6.77052 7.07448 7.05118 6.88695C7.33184 6.69942 7.6618 6.59932 7.99935 6.59932C8.45155 6.60073 8.88483 6.78099 9.20459 7.10075C9.52435 7.42051 9.70461 7.85379 9.70602 8.30599ZM13.3327 5.95932V10.6527C13.3327 11.4448 13.018 12.2044 12.4579 12.7645C11.8978 13.3247 11.1381 13.6393 10.346 13.6393H5.65268C4.86057 13.6393 4.1009 13.3247 3.54079 12.7645C2.98068 12.2044 2.66602 11.4448 2.66602 10.6527V5.95932C2.66602 5.16721 2.98068 4.40754 3.54079 3.84743C4.1009 3.28732 4.86057 2.97266 5.65268 2.97266H10.346C11.1381 2.97266 11.8978 3.28732 12.4579 3.84743C13.018 4.40754 13.3327 5.16721 13.3327 5.95932ZM10.5593 8.30599C10.5593 7.79967 10.4092 7.30472 10.1279 6.88373C9.84661 6.46274 9.4468 6.13462 8.97902 5.94086C8.51124 5.7471 7.99651 5.6964 7.49992 5.79518C7.00333 5.89396 6.54718 6.13777 6.18916 6.4958C5.83113 6.85382 5.58732 7.30997 5.48854 7.80656C5.38976 8.30315 5.44046 8.81788 5.63422 9.28566C5.82798 9.75344 6.1561 10.1533 6.57709 10.4346C6.99808 10.7158 7.49303 10.866 7.99935 10.866C8.6783 10.866 9.32945 10.5963 9.80954 10.1162C10.2896 9.63609 10.5593 8.98494 10.5593 8.30599ZM11.4127 5.53266C11.4127 5.40608 11.3751 5.28234 11.3048 5.17709C11.2345 5.07184 11.1345 4.98981 11.0176 4.94137C10.9007 4.89293 10.772 4.88026 10.6478 4.90495C10.5237 4.92965 10.4096 4.9906 10.3201 5.08011C10.2306 5.16961 10.1697 5.28365 10.145 5.4078C10.1203 5.53195 10.133 5.66063 10.1814 5.77757C10.2298 5.89452 10.3119 5.99447 10.4171 6.0648C10.5224 6.13512 10.6461 6.17266 10.7727 6.17266C10.9424 6.17266 11.1052 6.10523 11.2252 5.9852C11.3453 5.86518 11.4127 5.70239 11.4127 5.53266Z" fill="#1E3768"/>
</svg>
