<svg width="16" height="17" viewBox="0 0 16 17" fill="none" xmlns="http://www.w3.org/2000/svg">
<path d="M5.04447 4.15837C5.04431 4.47268 4.91887 4.77406 4.69573 4.9962C4.4726 5.21834 4.17005 5.34305 3.85465 5.3429C3.53925 5.34274 3.23682 5.21773 3.01391 4.99536C2.791 4.773 2.66586 4.4715 2.66602 4.15718C2.66617 3.84287 2.79162 3.54149 3.01475 3.31935C3.23789 3.09721 3.54043 2.9725 3.85584 2.97266C4.17124 2.97281 4.47366 3.09782 4.69657 3.32019C4.91949 3.54255 5.04463 3.84406 5.04447 4.15837ZM5.08015 6.22048H2.70169V13.6393H5.08015V6.22048ZM8.8381 6.22048H6.47154V13.6393H8.81432V9.74621C8.81432 7.57744 11.6506 7.37597 11.6506 9.74621V13.6393H13.9993V8.94032C13.9993 5.28423 9.80138 5.42052 8.81432 7.21598L8.8381 6.22048Z" fill="#1E3768"/>
</svg>
