<svg width="24" height="25" viewBox="0 0 24 25" fill="none" xmlns="http://www.w3.org/2000/svg">
<path d="M15.5 11.8906C15.5 13.8236 13.933 15.3906 12 15.3906C10.067 15.3906 8.5 13.8236 8.5 11.8906C8.5 9.95763 10.067 8.39062 12 8.39062C13.933 8.39062 15.5 9.95763 15.5 11.8906Z" stroke="#0A0A0A" stroke-width="2"/>
<path d="M12 2.89062C16.8706 2.89062 21 6.92361 21 11.8164C21 16.7871 16.8033 20.2753 12.927 22.6473C12.6445 22.8068 12.325 22.8906 12 22.8906C11.675 22.8906 11.3555 22.8068 11.073 22.6473C7.2039 20.2522 3 16.8043 3 11.8164C3 6.92361 7.12944 2.89062 12 2.89062Z" stroke="#0A0A0A" stroke-width="2"/>
</svg>
