<svg width="24" height="25" viewBox="0 0 24 25" fill="none" xmlns="http://www.w3.org/2000/svg">
<path d="M2 6.89062L8.91302 10.8076C11.4616 12.2516 12.5384 12.2516 15.087 10.8076L22 6.89062" stroke="#0A0A0A" stroke-width="2" stroke-linejoin="round"/>
<path d="M2.01577 14.3662C2.08114 17.4318 2.11383 18.9645 3.24496 20.1C4.37608 21.2354 5.95033 21.2749 9.09883 21.354C11.0393 21.4028 12.9607 21.4028 14.9012 21.354C18.0497 21.2749 19.6239 21.2354 20.7551 20.1C21.8862 18.9645 21.9189 17.4318 21.9842 14.3662C22.0053 13.3805 22.0053 12.4007 21.9842 11.415C21.9189 8.34949 21.8862 6.81672 20.7551 5.68129C19.6239 4.54586 18.0497 4.50631 14.9012 4.4272C12.9607 4.37844 11.0393 4.37844 9.09882 4.42719C5.95033 4.50629 4.37608 4.54584 3.24495 5.68128C2.11382 6.81671 2.08114 8.34948 2.01576 11.415C1.99474 12.4007 1.99475 13.3805 2.01577 14.3662Z" stroke="#0A0A0A" stroke-width="2" stroke-linejoin="round"/>
</svg>
