<svg width="24" height="24" viewBox="0 0 24 24" fill="none" xmlns="http://www.w3.org/2000/svg">
<path d="M12.1987 6.48949L10.7131 5.00392C9.0404 3.3312 6.8505 2.63737 4.5329 2.52399C3.6314 2.47989 3.1807 2.45784 2.8193 2.81928C2.4578 3.18071 2.4799 3.63143 2.524 4.53289C2.6374 6.8505 3.3312 9.04042 5.0039 10.7131L6.4895 12.1987C7.7129 13.4221 8.0607 13.77 7.8039 15.097C7.5504 16.1107 7.3051 17.0923 8.0422 17.8294C8.9363 18.7235 9.7519 18.7235 10.646 17.8294L17.8294 10.646C18.7235 9.75188 18.7235 8.9363 17.8294 8.04219C17.0923 7.30509 16.1107 7.55044 15.097 7.80389C13.77 8.06073 13.4221 7.71289 12.1987 6.48949Z" stroke="white" stroke-width="1.5" stroke-linejoin="round"/>
<path d="M7.00391 7H6.99491" stroke="white" stroke-width="2" stroke-linecap="round" stroke-linejoin="round"/>
<path d="M21.5 21.5L16.5 16.5" stroke="white" stroke-width="1.5" stroke-linecap="round"/>
<path d="M15.5 21.5L13.5 19.5" stroke="white" stroke-width="1.5" stroke-linecap="round"/>
<path d="M21.5 15.5L19.5 13.5" stroke="white" stroke-width="1.5" stroke-linecap="round"/>
</svg>
