<svg width="24" height="25" viewBox="0 0 24 25" fill="none" xmlns="http://www.w3.org/2000/svg">
<path d="M19.7453 13.0664C20.5362 11.9326 21 10.5536 21 9.06641C21 5.20042 17.866 2.06641 14 2.06641C10.134 2.06641 7 5.20041 7 9.06641C7 10.14 7.24169 11.1571 7.67363 12.0664" stroke="url(#paint0_linear_7494_31309)" stroke-width="1.5" stroke-linecap="round" stroke-linejoin="round"/>
<path d="M14 6.06641C12.8954 6.06641 12 6.73798 12 7.56641C12 8.39484 12.8954 9.06641 14 9.06641C15.1046 9.06641 16 9.73798 16 10.5664C16 11.3948 15.1046 12.0664 14 12.0664M14 6.06641C14.8708 6.06641 15.6116 6.48381 15.8862 7.06641M14 6.06641V5.06641M14 12.0664C13.1292 12.0664 12.3884 11.649 12.1138 11.0664M14 12.0664V13.0664" stroke="url(#paint1_linear_7494_31309)" stroke-width="1.5" stroke-linecap="round"/>
<path d="M3 14.0664H5.39482C5.68897 14.0664 5.97908 14.1327 6.24217 14.26L8.28415 15.248C8.54724 15.3753 8.83735 15.4415 9.1315 15.4415H10.1741C11.1825 15.4415 12 16.2326 12 17.2084C12 17.2478 11.973 17.2825 11.9338 17.2933L9.39287 17.9959C8.93707 18.1219 8.449 18.078 8.025 17.8728L5.84211 16.8167M12 16.5664L16.5928 15.1553C17.407 14.9016 18.2871 15.2024 18.7971 15.9087C19.1659 16.4193 19.0157 17.1506 18.4785 17.4606L10.9629 21.7969C10.4849 22.0727 9.92094 22.14 9.39516 21.984L3 20.0863" stroke="url(#paint2_linear_7494_31309)" stroke-width="1.5" stroke-linecap="round" stroke-linejoin="round"/>
<defs>
<linearGradient id="paint0_linear_7494_31309" x1="14.0275" y1="2.76329" x2="14.0107" y2="13.0664" gradientUnits="userSpaceOnUse">
<stop stop-color="#0F6D5C"/>
<stop offset="1" stop-color="#20A98A"/>
</linearGradient>
<linearGradient id="paint1_linear_7494_31309" x1="14.0078" y1="5.57323" x2="13.9768" y2="13.0663" gradientUnits="userSpaceOnUse">
<stop stop-color="#0F6D5C"/>
<stop offset="1" stop-color="#20A98A"/>
</linearGradient>
<linearGradient id="paint2_linear_7494_31309" x1="11.0314" y1="14.5732" x2="11.0236" y2="22.0664" gradientUnits="userSpaceOnUse">
<stop stop-color="#0F6D5C"/>
<stop offset="1" stop-color="#20A98A"/>
</linearGradient>
</defs>
</svg>
