<svg width="32" height="32" viewBox="0 0 32 32" fill="none" xmlns="http://www.w3.org/2000/svg">
<path d="M12 17.3333C12 17.3333 13.3333 17.3333 14.6667 20C14.6667 20 18.902 13.3333 22.6667 12" stroke="black" stroke-width="2" stroke-linecap="round" stroke-linejoin="round"/>
<path d="M28 14.9104V11.0397C28 8.85307 28 7.75972 27.4612 7.0464C26.9224 6.33307 25.7041 5.98676 23.2676 5.29415C21.6029 4.82095 20.1355 4.25086 18.9631 3.7304C17.3645 3.02082 16.5653 2.66602 16 2.66602C15.4347 2.66602 14.6355 3.02082 13.0369 3.7304C11.8645 4.25086 10.3971 4.82094 8.73244 5.29415C6.29591 5.98676 5.07763 6.33307 4.53881 7.0464C4 7.75972 4 8.85307 4 11.0397V14.9104C4 22.4107 10.7504 26.9107 14.1253 28.6919C14.9348 29.1191 15.3395 29.3327 16 29.3327C16.6605 29.3327 17.0652 29.1191 17.8747 28.6919C21.2496 26.9107 28 22.4107 28 14.9104Z" stroke="black" stroke-width="2" stroke-linecap="round"/>
</svg>
