<svg width="81" height="81" viewBox="0 0 81 81" fill="none" xmlns="http://www.w3.org/2000/svg">
<rect x="0.5" y="0.392578" width="80" height="80" rx="40" fill="url(#paint0_linear_7359_51297)" fill-opacity="0.1"/>
<rect x="0.81746" y="0.710038" width="79.3651" height="79.3651" rx="39.6825" stroke="url(#paint1_linear_7359_51297)" stroke-opacity="0.05" stroke-width="0.634921"/>
<rect x="5.57812" y="5.47266" width="69.5873" height="69.5873" rx="34.7937" fill="url(#paint2_linear_7359_51297)" fill-opacity="0.15"/>
<rect x="5.89559" y="5.79012" width="68.9524" height="68.9524" rx="34.4762" stroke="url(#paint3_linear_7359_51297)" stroke-opacity="0.15" stroke-width="0.634921"/>
<rect x="10.6562" y="10.5527" width="59.4286" height="59.4286" rx="29.7143" fill="url(#paint4_linear_7359_51297)" fill-opacity="0.2"/>
<rect x="10.9737" y="10.8702" width="58.7936" height="58.7936" rx="29.3968" stroke="url(#paint5_linear_7359_51297)" stroke-opacity="0.2" stroke-width="0.634921"/>
<g filter="url(#filter0_i_7359_51297)">
<rect x="17.0039" y="16.9023" width="46.7302" height="46.7302" rx="23.3651" fill="url(#paint6_linear_7359_51297)"/>
<rect x="17.3214" y="17.2198" width="46.0952" height="46.0952" rx="23.0476" stroke="url(#paint7_linear_7359_51297)" stroke-opacity="0.2" stroke-width="0.634921"/>
<path d="M44.8147 40.2687C44.8147 42.7232 42.8248 44.7131 40.3702 44.7131C37.9156 44.7131 35.9258 42.7232 35.9258 40.2687C35.9258 37.8141 37.9156 35.8242 40.3702 35.8242" stroke="white" stroke-width="1.33333" stroke-linecap="round"/>
<path d="M42.1471 31.5567C41.5727 31.4401 40.9782 31.3789 40.3694 31.3789C35.4602 31.3789 31.4805 35.3586 31.4805 40.2678C31.4805 45.1769 35.4602 49.1567 40.3694 49.1567C45.2785 49.1567 49.2582 45.1769 49.2582 40.2678C49.2582 39.659 49.197 39.0644 49.0805 38.49" stroke="white" stroke-width="1.33333" stroke-linecap="round"/>
<path d="M40.3984 40.2355L44.4455 36.1884M47.2519 33.464L46.7601 31.6977C46.6695 31.4067 46.3194 31.2907 46.0834 31.4836C44.8069 32.5267 43.4163 33.9318 44.5519 36.1481C46.84 37.215 48.1463 35.7762 49.1478 34.5668C49.3471 34.3262 49.2269 33.9645 48.9268 33.8777L47.2519 33.464Z" stroke="white" stroke-width="1.33333" stroke-linecap="round" stroke-linejoin="round"/>
</g>
<defs>
<filter id="filter0_i_7359_51297" x="4.30549" y="4.20393" width="72.1273" height="72.1273" filterUnits="userSpaceOnUse" color-interpolation-filters="sRGB">
<feFlood flood-opacity="0" result="BackgroundImageFix"/>
<feBlend mode="normal" in="SourceGraphic" in2="BackgroundImageFix" result="shape"/>
<feColorMatrix in="SourceAlpha" type="matrix" values="0 0 0 0 0 0 0 0 0 0 0 0 0 0 0 0 0 0 127 0" result="hardAlpha"/>
<feOffset dy="2.53968"/>
<feGaussianBlur stdDeviation="1.26984"/>
<feComposite in2="hardAlpha" operator="arithmetic" k2="-1" k3="1"/>
<feColorMatrix type="matrix" values="0 0 0 0 0.0745098 0 0 0 0 0.533333 0 0 0 0 0.439216 0 0 0 0.2 0"/>
<feBlend mode="normal" in2="shape" result="effect1_innerShadow_7359_51297"/>
</filter>
<linearGradient id="paint0_linear_7359_51297" x1="40.5" y1="-21.062" x2="40.5" y2="101.12" gradientUnits="userSpaceOnUse">
<stop stop-color="#138870"/>
<stop offset="0.793314" stop-color="#138870" stop-opacity="0"/>
</linearGradient>
<linearGradient id="paint1_linear_7359_51297" x1="40.5" y1="0.392578" x2="40.5" y2="80.3926" gradientUnits="userSpaceOnUse">
<stop stop-color="#138870"/>
<stop offset="1" stop-color="#138870" stop-opacity="0"/>
</linearGradient>
<linearGradient id="paint2_linear_7359_51297" x1="40.3718" y1="-13.1894" x2="40.3718" y2="93.0894" gradientUnits="userSpaceOnUse">
<stop stop-color="#138870"/>
<stop offset="0.793314" stop-color="#138870" stop-opacity="0"/>
</linearGradient>
<linearGradient id="paint3_linear_7359_51297" x1="40.3718" y1="5.47266" x2="40.3718" y2="75.06" gradientUnits="userSpaceOnUse">
<stop stop-color="#138870"/>
<stop offset="1" stop-color="#138870" stop-opacity="0"/>
</linearGradient>
<linearGradient id="paint4_linear_7359_51297" x1="40.3705" y1="-5.38493" x2="40.3705" y2="85.3787" gradientUnits="userSpaceOnUse">
<stop stop-color="#138870"/>
<stop offset="0.793314" stop-color="#138870" stop-opacity="0"/>
</linearGradient>
<linearGradient id="paint5_linear_7359_51297" x1="40.3705" y1="10.5527" x2="40.3705" y2="69.9813" gradientUnits="userSpaceOnUse">
<stop stop-color="#138870"/>
<stop offset="1" stop-color="#138870" stop-opacity="0"/>
</linearGradient>
<linearGradient id="paint6_linear_7359_51297" x1="40.4606" y1="19.8628" x2="40.3701" y2="63.6325" gradientUnits="userSpaceOnUse">
<stop stop-color="#0F6D5C"/>
<stop offset="1" stop-color="#20A98A"/>
</linearGradient>
<linearGradient id="paint7_linear_7359_51297" x1="40.369" y1="16.9023" x2="40.369" y2="63.6325" gradientUnits="userSpaceOnUse">
<stop stop-color="#138870"/>
<stop offset="1" stop-color="#138870" stop-opacity="0"/>
</linearGradient>
</defs>
</svg>
