<svg width="16" height="17" viewBox="0 0 16 17" fill="none" xmlns="http://www.w3.org/2000/svg">
<path d="M14 4.81319C13.5583 5.01907 13.0822 5.15437 12.5889 5.21907C13.0937 4.90731 13.4837 4.41319 13.6673 3.81907C13.1912 4.11319 12.6635 4.31907 12.1071 4.43672C11.6539 3.93084 11.0172 3.63672 10.2945 3.63672C8.94646 3.63672 7.84512 4.76613 7.84512 6.16025C7.84512 6.36025 7.86807 6.55437 7.90822 6.73672C5.86616 6.63084 4.0478 5.62495 2.83748 4.10142C2.62524 4.47201 2.50478 4.90731 2.50478 5.36613C2.50478 6.2426 2.93499 7.01907 3.60038 7.46025C3.19312 7.46025 2.81453 7.3426 2.48184 7.16613V7.18378C2.48184 8.40731 3.33078 9.43084 4.45507 9.66025C4.09411 9.76155 3.71516 9.77564 3.34799 9.70143C3.50379 10.2029 3.80891 10.6417 4.22047 10.9561C4.63202 11.2705 5.12932 11.4448 5.64245 11.4544C4.77264 12.1605 3.69445 12.5422 2.58509 12.5367C2.39006 12.5367 2.19503 12.525 2 12.5014C3.08987 13.2191 4.38623 13.6367 5.77438 13.6367C10.2945 13.6367 12.7782 9.78966 12.7782 6.45437C12.7782 6.3426 12.7782 6.23672 12.7725 6.12495C13.2543 5.77201 13.6673 5.32495 14 4.81319Z" fill="#1E3768"/>
</svg>
