<svg width="81" height="81" viewBox="0 0 81 81" fill="none" xmlns="http://www.w3.org/2000/svg">
<rect x="0.5" y="0.392578" width="80" height="80" rx="40" fill="url(#paint0_linear_7359_51309)" fill-opacity="0.1"/>
<rect x="0.81746" y="0.710038" width="79.3651" height="79.3651" rx="39.6825" stroke="url(#paint1_linear_7359_51309)" stroke-opacity="0.05" stroke-width="0.634921"/>
<rect x="5.57812" y="5.47266" width="69.5873" height="69.5873" rx="34.7937" fill="url(#paint2_linear_7359_51309)" fill-opacity="0.15"/>
<rect x="5.89559" y="5.79012" width="68.9524" height="68.9524" rx="34.4762" stroke="url(#paint3_linear_7359_51309)" stroke-opacity="0.15" stroke-width="0.634921"/>
<rect x="10.6562" y="10.5527" width="59.4286" height="59.4286" rx="29.7143" fill="url(#paint4_linear_7359_51309)" fill-opacity="0.2"/>
<rect x="10.9737" y="10.8702" width="58.7936" height="58.7936" rx="29.3968" stroke="url(#paint5_linear_7359_51309)" stroke-opacity="0.2" stroke-width="0.634921"/>
<g filter="url(#filter0_i_7359_51309)">
<rect x="17.0039" y="16.9023" width="46.7302" height="46.7302" rx="23.3651" fill="url(#paint6_linear_7359_51309)"/>
<rect x="17.3214" y="17.2198" width="46.0952" height="46.0952" rx="23.0476" stroke="url(#paint7_linear_7359_51309)" stroke-opacity="0.2" stroke-width="0.634921"/>
<path d="M42.592 36.2687C42.592 33.8141 40.6021 31.8242 38.1476 31.8242C35.693 31.8242 33.7031 33.8141 33.7031 36.2687C33.7031 38.7232 35.693 40.7131 38.1476 40.7131C40.6021 40.7131 42.592 38.7232 42.592 36.2687Z" stroke="white" stroke-width="1.33333" stroke-linecap="round" stroke-linejoin="round"/>
<path d="M31.9258 46.9351C31.9258 43.4987 34.7116 40.7129 38.148 40.7129C39.1023 40.7129 40.0064 40.9277 40.8147 41.3116" stroke="white" stroke-width="1.33333" stroke-linecap="round" stroke-linejoin="round"/>
<path d="M45.2587 48.7144C45.2587 48.7144 48.8142 47.0674 48.8142 44.3934C48.8142 43.3434 48.0657 42.4922 47.0365 42.4922C46.1943 42.4922 45.633 42.8582 45.2587 43.5902C44.8844 42.8582 44.323 42.4922 43.4809 42.4922C42.4517 42.4922 41.7031 43.3434 41.7031 44.3934C41.7031 47.0674 45.2587 48.7144 45.2587 48.7144Z" stroke="white" stroke-width="1.33333" stroke-linecap="round" stroke-linejoin="round"/>
</g>
<defs>
<filter id="filter0_i_7359_51309" x="4.30549" y="4.20393" width="72.1273" height="72.1273" filterUnits="userSpaceOnUse" color-interpolation-filters="sRGB">
<feFlood flood-opacity="0" result="BackgroundImageFix"/>
<feBlend mode="normal" in="SourceGraphic" in2="BackgroundImageFix" result="shape"/>
<feColorMatrix in="SourceAlpha" type="matrix" values="0 0 0 0 0 0 0 0 0 0 0 0 0 0 0 0 0 0 127 0" result="hardAlpha"/>
<feOffset dy="2.53968"/>
<feGaussianBlur stdDeviation="1.26984"/>
<feComposite in2="hardAlpha" operator="arithmetic" k2="-1" k3="1"/>
<feColorMatrix type="matrix" values="0 0 0 0 0.0745098 0 0 0 0 0.533333 0 0 0 0 0.439216 0 0 0 0.2 0"/>
<feBlend mode="normal" in2="shape" result="effect1_innerShadow_7359_51309"/>
</filter>
<linearGradient id="paint0_linear_7359_51309" x1="40.5" y1="-21.062" x2="40.5" y2="101.12" gradientUnits="userSpaceOnUse">
<stop stop-color="#138870"/>
<stop offset="0.793314" stop-color="#138870" stop-opacity="0"/>
</linearGradient>
<linearGradient id="paint1_linear_7359_51309" x1="40.5" y1="0.392578" x2="40.5" y2="80.3926" gradientUnits="userSpaceOnUse">
<stop stop-color="#138870"/>
<stop offset="1" stop-color="#138870" stop-opacity="0"/>
</linearGradient>
<linearGradient id="paint2_linear_7359_51309" x1="40.3718" y1="-13.1894" x2="40.3718" y2="93.0894" gradientUnits="userSpaceOnUse">
<stop stop-color="#138870"/>
<stop offset="0.793314" stop-color="#138870" stop-opacity="0"/>
</linearGradient>
<linearGradient id="paint3_linear_7359_51309" x1="40.3718" y1="5.47266" x2="40.3718" y2="75.06" gradientUnits="userSpaceOnUse">
<stop stop-color="#138870"/>
<stop offset="1" stop-color="#138870" stop-opacity="0"/>
</linearGradient>
<linearGradient id="paint4_linear_7359_51309" x1="40.3705" y1="-5.38493" x2="40.3705" y2="85.3787" gradientUnits="userSpaceOnUse">
<stop stop-color="#138870"/>
<stop offset="0.793314" stop-color="#138870" stop-opacity="0"/>
</linearGradient>
<linearGradient id="paint5_linear_7359_51309" x1="40.3705" y1="10.5527" x2="40.3705" y2="69.9813" gradientUnits="userSpaceOnUse">
<stop stop-color="#138870"/>
<stop offset="1" stop-color="#138870" stop-opacity="0"/>
</linearGradient>
<linearGradient id="paint6_linear_7359_51309" x1="40.4606" y1="19.8628" x2="40.3701" y2="63.6325" gradientUnits="userSpaceOnUse">
<stop stop-color="#0F6D5C"/>
<stop offset="1" stop-color="#20A98A"/>
</linearGradient>
<linearGradient id="paint7_linear_7359_51309" x1="40.369" y1="16.9023" x2="40.369" y2="63.6325" gradientUnits="userSpaceOnUse">
<stop stop-color="#138870"/>
<stop offset="1" stop-color="#138870" stop-opacity="0"/>
</linearGradient>
</defs>
</svg>
