<svg width="23" height="22" viewBox="0 0 23 22" fill="none" xmlns="http://www.w3.org/2000/svg">
<path d="M13.592 7.26866C13.592 4.81407 11.6021 2.82422 9.14757 2.82422C6.69297 2.82422 4.70312 4.81407 4.70312 7.26866C4.70312 9.72324 6.69297 11.7131 9.14757 11.7131C11.6021 11.7131 13.592 9.72324 13.592 7.26866Z" stroke="white" stroke-width="1.33333" stroke-linecap="round" stroke-linejoin="round"/>
<path d="M2.92578 17.9351C2.92578 14.4987 5.71157 11.7129 9.148 11.7129C10.1023 11.7129 11.0064 11.9277 11.8147 12.3116" stroke="white" stroke-width="1.33333" stroke-linecap="round" stroke-linejoin="round"/>
<path d="M16.2587 19.7144C16.2587 19.7144 19.8142 18.0674 19.8142 15.3934C19.8142 14.3434 19.0657 13.4922 18.0365 13.4922C17.1943 13.4922 16.633 13.8582 16.2587 14.5902C15.8844 13.8582 15.323 13.4922 14.4809 13.4922C13.4517 13.4922 12.7031 14.3434 12.7031 15.3934C12.7031 18.0674 16.2587 19.7144 16.2587 19.7144Z" stroke="white" stroke-width="1.33333" stroke-linecap="round" stroke-linejoin="round"/>
</svg>
