<svg width="32" height="33" viewBox="0 0 32 33" fill="none" xmlns="http://www.w3.org/2000/svg">
<path d="M25.918 20.8249C27.1508 19.6012 28.1027 18.385 28.7247 17.5129C29.13 16.9445 29.3327 16.6602 29.3327 16.2396C29.3327 15.8189 29.13 15.5346 28.7247 14.9662C26.9032 12.4122 22.2516 6.90625 15.9993 6.90625C14.7889 6.90625 13.6385 7.1126 12.557 7.46394M8.99591 9.23614C6.30759 11.0492 4.32222 13.4965 3.27407 14.9662C2.8687 15.5346 2.66602 15.8189 2.66602 16.2396C2.66602 16.6602 2.8687 16.9445 3.27407 17.5129C5.09548 20.067 9.74706 25.5729 15.9993 25.5729C18.6537 25.5729 21.0195 24.5805 23.0028 23.243" stroke="black" stroke-width="2" stroke-linecap="round" stroke-linejoin="round"/>
<path d="M13.1438 13.5742C12.4371 14.2809 12 15.2573 12 16.3357C12 18.4925 13.7484 20.2409 15.9052 20.2409C16.9836 20.2409 17.96 19.8038 18.6667 19.097" stroke="black" stroke-width="2" stroke-linecap="round"/>
<path d="M4 4.24023L28 28.2402" stroke="black" stroke-width="2" stroke-linecap="round" stroke-linejoin="round"/>
</svg>
