<svg width="32" height="33" viewBox="0 0 32 33" fill="none" xmlns="http://www.w3.org/2000/svg">
<path d="M11.5048 17.8688H10.8929C8.91458 17.8688 7.92542 17.8688 7.5038 17.2166C7.08217 16.5644 7.4839 15.6558 8.28737 13.8385L10.7029 8.37501C11.4334 6.7227 11.7987 5.89654 12.5073 5.43362C13.2159 4.9707 14.1152 4.9707 15.914 4.9707H18.6998C20.8849 4.9707 21.9774 4.9707 22.3894 5.6845C22.8016 6.3983 22.2596 7.35188 21.1754 9.25901L19.7462 11.7732C19.2073 12.7213 18.9378 13.1954 18.9416 13.5834C18.9465 14.0877 19.2146 14.5523 19.6478 14.8067C19.9812 15.0026 20.5242 15.0026 21.6105 15.0026C22.9837 15.0026 23.6704 15.0026 24.028 15.2403C24.4925 15.5491 24.7357 16.1016 24.6505 16.655C24.5849 17.0808 24.123 17.5915 23.1993 18.613L15.8192 26.7738C14.3696 28.3767 13.6448 29.1782 13.1581 28.9246C12.6714 28.6708 12.9051 27.6136 13.3725 25.499L14.2882 21.3568C14.6441 19.7467 14.8221 18.9416 14.3941 18.4052C13.9661 17.8688 13.1457 17.8688 11.5048 17.8688Z" stroke="black" stroke-width="2" stroke-linejoin="round"/>
</svg>
