<svg width="120" height="26" viewBox="0 0 120 26" fill="none" xmlns="http://www.w3.org/2000/svg">
<rect x="5.59375" y="2.74023" width="14.9513" height="20.9748" rx="2.15126" fill="#1E3768"/>
<path d="M6.46571 0.912109L0.751953 6.62909V24.6502H18.7752L24.4858 18.9419V0.912109H6.46463H6.46571ZM13.0454 23.5466L5.67942 16.1807V10.7122H11.2017L18.5397 18.0501H13.0314L13.0454 23.5466ZM11.2125 10.7208L5.96124 4.07985H15.2009L20.5737 10.7208H11.2125Z" fill="#43C4A2"/>
<path d="M30.3008 6.22373H40.3913V7.97809H32.0551V14.5577H39.0736V16.3121H32.0551V24.6461H30.3008V6.22266V6.22373Z" fill="#43C4A2"/>
<path d="M53.1115 22.8917V24.6461H43.4609V6.22266H45.2153V22.8917H53.1115Z" fill="#43C4A2"/>
<path d="M73.7234 15.4361C73.7234 20.6443 69.5016 24.8683 64.2933 24.8683C59.0851 24.8683 54.8633 20.6454 54.8633 15.4361C54.8633 10.2268 59.0851 6.00391 64.2933 6.00391C69.5016 6.00391 73.7234 10.2268 73.7234 15.4361ZM71.969 15.4361C71.969 11.1583 68.5711 7.75934 64.2933 7.75934C60.0156 7.75934 56.6176 11.1594 56.6176 15.4361C56.6176 19.7128 60.0156 23.1129 64.2933 23.1129C68.5711 23.1129 71.969 19.7128 71.969 15.4361Z" fill="#43C4A2"/>
<path d="M99.6029 6.22401L91.9262 25.0863L86.8825 10.7202L81.8389 25.0863L74.1621 6.22401H76.1348L81.783 20.261L86.8825 5.78516L91.9821 20.261L97.6302 6.22401H99.6029Z" fill="#43C4A2"/>
<path d="M120 24.6461H113.803L110.129 18.8344L106.455 24.6461H100.258L106.509 14.9955L100.724 6.22266H106.92L110.128 11.3771L113.335 6.22266H119.532L113.746 14.9955L119.998 24.6461H120Z" fill="#43C4A2"/>
</svg>
